# xmcd
#
# Track frame offsets:
#	187
#	14997
#	26875
#	41770
#	62165
#	72037
#	90122
#	108850
#	129447
#
# Disc length: 2026 seconds
#
# Revision: 1
# Processed by: cddbd v1.5.1PL0 Copyright (c) Steve Scherf et al.
# Submitted via: CDex 1.50Beta5
#
DISCID=7407e809
DTITLE=Virgin VS - 羊ヶ丘デパートメントストア
DYEAR=1995
DGENRE=Rock
TTITLE0=デパートメインストア
TTITLE1=恋のダイヤモンド・リング
TTITLE2=ピカピカ・タクシー・ボーイ
TTITLE3=秋晴れ秋葉原
TTITLE4=羊は眠る
TTITLE5=カラピラ辻に異星人を待つ
TTITLE6=百合コレクション
TTITLE7=ピクニック・パニック
TTITLE8=月夜の尖端り
EXTD=
EXTT0=
EXTT1=
EXTT2=
EXTT3=
EXTT4=
EXTT5=
EXTT6=
EXTT7=
EXTT8=
PLAYORDER=
